<svg width="96" height="96" viewBox="0 0 96 96" fill="none" xmlns="http://www.w3.org/2000/svg">
  <rect x="8" y="8" width="80" height="80" rx="24" fill="#020617"/>
  <rect x="8.5" y="8.5" width="79" height="79" rx="23.5" stroke="white" stroke-opacity="0.10"/>
  <path d="M48 20L68 28V44C68 57.6 59.8 69.2 48 74C36.2 69.2 28 57.6 28 44V28L48 20Z" fill="url(#g)" fill-opacity="0.16" stroke="url(#s)" stroke-width="2"/>
  <path d="M39 47.5H57M43 47.5V40.5C43 37.7 45.2 35.5 48 35.5C50.8 35.5 53 37.7 53 40.5V47.5" stroke="#F8FAFC" stroke-width="3" stroke-linecap="round"/>
  <path d="M48 52V59" stroke="#60A5FA" stroke-width="3" stroke-linecap="round"/>
  <defs>
    <linearGradient id="g" x1="29" y1="22" x2="70" y2="73" gradientUnits="userSpaceOnUse">
      <stop stop-color="#60A5FA"/>
      <stop offset="1" stop-color="#8B5CF6"/>
    </linearGradient>
    <linearGradient id="s" x1="30" y1="22" x2="70" y2="74" gradientUnits="userSpaceOnUse">
      <stop stop-color="#93C5FD"/>
      <stop offset="1" stop-color="#A78BFA"/>
    </linearGradient>
  </defs>
</svg>
